PathFileType	4	(X/Y/Z)	Patient4_TMGait_0pt5_01_right_35.trc.trc
DataRate	CameraRate	NumFrames	NumMarkers	Units	OrigDataRate	OrigDataStartFrame	OrigNumFrames
72.538860103627	72.538860103627	4	33	mm	72.538860103627	53	       141
Frame#	Time	L.ASIS			Sacral			L.Shoulder			Chest			R.Shoulder			Neck			R.ASIS			R.Thigh.Superior			R.Thigh.Lateral			R.Thigh.Inferior			R.Patella			L.Thigh.Superior			L.Thigh.Lateral			L.Thigh.Inferior			L.Patella			L.Shank.Superior			L.Shank.Lateral			L.Shank.Inferior			R.Shank.Superior			R.Shank.Lateral			R.Shank.Inferior			R.Heel			R.Midfoot.Superior			R.Midfoot.Lateral			R.Toe			L.Heel			L.Midfoot.Lateral			L.Midfoot.Superior			L.Toe			L.Elbow			L.Wrist			R.Elbow			R.Wrist			
		X1	Y1	Z1	X2	Y2	Z2	X3	Y3	Z3	X4	Y4	Z4	X5	Y5	Z5	X6	Y6	Z6	X7	Y7	Z7	X8	Y8	Z8	X9	Y9	Z9	X10	Y10	Z10	X11	Y11	Z11	X12	Y12	Z12	X13	Y13	Z13	X14	Y14	Z14	X15	Y15	Z15	X16	Y16	Z16	X17	Y17	Z17	X18	Y18	Z18	X19	Y19	Z19	X20	Y20	Z20	X21	Y21	Z21	X22	Y22	Z22	X23	Y23	Z23	X24	Y24	Z24	X25	Y25	Z25	X26	Y26	Z26	X27	Y27	Z27	X28	Y28	Z28	X29	Y29	Z29	X30	Y30	Z30	X31	Y31	Z31	X32	Y32	Z32	X33	Y33	Z33	

53	46.646857142857	781.834672300810	968.487506210240	382.830095997864	580.155913476046	1008.859535614597	555.462951532543	739.394403878953	1448.875023373839	385.390914471659	855.879889154423	1368.035166245934	531.664709660408	787.893466433231	1431.092188171322	717.202960892248	757.269415910991	1499.533733592534	538.715634760036	813.688659869031	944.968354696828	654.953748329319	836.199002538230	739.610893745072	624.234709524074	747.602702164759	635.035765425873	683.785895871302	818.769077139005	578.783118977112	603.318481334877	811.861072236540	492.324374734439	607.972209349061	863.621711161224	784.848919836165	406.261409225504	819.058402735014	659.854495196342	325.357868318975	922.352691145273	598.362533261354	384.611747537131	945.379868967214	520.723210747295	373.494266159513	908.071065662044	445.996391047423	363.213431699756	800.263667049927	345.985336359289	316.551119506884	852.827153861447	223.658077259507	365.795948497694	783.645104070107	404.693149945441	611.373495026764	708.658577811855	299.817449501725	665.750437538127	753.695587648929	207.047601353795	600.942058356780	618.677765662802	42.776793124519	560.423437865824	790.770368657768	97.721527154489	600.167110400560	701.314698313938	36.106849783974	636.161830047892	909.336937990257	45.068921049205	627.117541556089	718.960081330555	72.442119147688	406.978831494939	784.614167867765	67.080401820239	320.444147581455	873.563992058063	123.788696220723	338.147933955746	992.949090164338	66.822634987130	296.717067549764	619.949951470593	1123.466302613929	256.958016042004	698.277869743787	872.152485088261	244.621730281296	838.973571954965	1085.496223167379	826.947846076256	1058.368895212911	950.429703662325	797.005160445050	
54	46.660642857143	780.574782982293	968.152189551223	383.256098885540	579.764752929649	1008.695960275462	556.876898597326	737.944564323864	1448.830917833836	386.352901990318	855.011995359852	1367.822613429350	532.035610971407	787.775295242455	1430.519841849920	717.928502476564	756.390654070632	1499.340344228867	539.721602983667	813.459624295210	944.854563748201	655.316109307500	834.136959487261	739.024369986150	624.587574289725	744.526475348702	634.990568185374	684.443932568291	814.782918252225	578.095519219447	603.994663419502	806.957291674909	491.822873289643	608.593014435138	861.118664221297	783.723950295986	406.768892683753	816.575939139250	659.268689966313	325.227747269557	919.132182356283	597.509268846886	385.478413847074	943.409890465870	522.094065437153	374.090179356781	910.062810243064	447.628878109300	363.168846030064	809.100635789409	341.412400689570	315.266005255236	868.988110902609	222.164245173796	364.552556817434	778.311170999586	404.407693674485	611.817388029194	702.796641449062	299.851700043634	666.034751598240	747.422671274526	206.909714261671	601.162269230445	611.786707055512	42.877021338689	560.444087501982	783.834357034168	97.563145597366	600.021089605494	694.419310583518	36.114372692045	636.141354005872	902.472085033717	44.764773782128	627.158548960486	744.451759245168	62.914532719411	404.491337436985	811.336958943435	61.327771490510	318.616245781102	896.565723775453	123.296685168038	336.962416311581	1019.628733807306	73.389519337730	296.972489019231	616.470286430952	1123.911982451054	258.891102719791	685.859246852527	869.909665591469	248.827836818581	843.551035218501	1085.262939551590	825.646996181591	1067.909138096430	959.913247015479	792.361375787678	
55	46.674428571429	779.412129140208	967.724874185153	383.573641271629	579.353067300098	1008.514653946732	558.033298790025	736.619715009033	1448.718669208270	387.094571798067	854.163040048082	1367.562364913690	532.279984243695	787.537412971095	1429.923636269560	718.465819994458	755.555393155069	1499.110142156985	540.503041158316	813.174225286609	944.755996373052	655.606733948973	832.238235013987	738.457976077540	625.119251872987	741.492032369957	634.954559645906	685.049862592705	811.006259941480	577.439645501081	604.734156644843	802.279565738261	491.316869813772	609.220718857088	858.519888001858	782.343812887383	407.132935233503	813.750454039403	658.453603524038	325.021570117097	915.675438050154	596.348055582455	386.071094837852	941.034366629790	523.147291827607	374.674198867499	911.507464278865	449.220763637177	363.256516098855	817.624437479584	337.375905530924	314.034735978538	884.304618352589	221.616710859757	363.599284950386	773.132988395983	404.132778674758	612.257510979885	697.032192719191	299.942989685786	666.317222913930	741.217087064916	206.799727596163	601.406223239217	604.899479294598	43.022114057386	560.483252894321	776.879343049494	97.367448456516	599.816847827552	687.532493376935	36.129929598108	636.131194196396	895.619618280592	44.422260627286	627.194158333072	769.079100665994	55.330422156567	402.190412143447	837.252519497497	57.135657889238	317.196195628166	918.593177935171	123.923158833515	336.258310004731	1044.889178532508	80.783140228384	298.236354586718	613.296895434814	1124.229291625047	260.654465821098	673.702692373137	867.879549419956	253.141266168382	848.049236656424	1085.044476626797	823.955658910463	1077.032702253072	969.962637913867	787.232683702138	
56	46.688214285714	778.345179775848	967.245825969118	383.781907924964	578.910940793601	1008.345958992232	558.923919531825	735.419356706508	1448.552635880787	387.606191941428	853.342369957399	1367.274630144052	532.385205332022	787.207872458821	1429.345115365569	718.802861205805	754.773232702405	1498.863184173229	541.044884882172	812.817918604281	944.675225080943	655.828325477124	830.464119420649	737.920687535700	625.779838020018	738.489946414522	634.935930631396	685.586309996727	807.421292221728	576.823003122083	605.501124774636	797.819061486929	490.812871315480	609.832147219846	855.936636828415	780.839701012268	407.328515162505	810.694256868911	657.475912080341	324.782625667381	912.164499729181	594.997303240269	386.362380150985	938.417136826606	523.955474836924	375.242072024711	912.501069598050	450.787337207190	363.457499146178	825.710690352832	333.945592058410	312.940985052273	898.608208527476	221.950835379163	362.920981777237	768.105912156618	403.871743217858	612.679844060814	691.361292876394	300.098019816687	666.588742474439	735.078724133702	206.723428371279	601.666864894400	598.016909572298	43.216616088870	560.540636661192	769.910600294525	97.141365120193	599.563295547857	680.654297502245	36.156354137722	636.130092940463	888.776811371587	44.050264793184	627.225617971383	792.464064146949	49.658804340302	400.190644560842	861.920801212554	54.418790053770	316.211755773827	939.356589340680	125.529710136864	335.965487074301	1068.423071129519	88.722858846474	300.263292807200	610.378220230503	1124.448570916758	262.252640634488	661.873977519333	866.108764150457	257.508349951164	852.476218748907	1084.906575235254	821.927545820556	1085.659091380429	980.551291207763	781.712187372124	
